<svg xmlns="http://www.w3.org/2000/svg" viewBox="0 0 749.99 422.83"><defs><style>.cls-1{fill:#fff;}</style></defs><g id="Camada_2" data-name="Camada 2"><g id="Camada_1-2" data-name="Camada 1"><path id="Caminho_299-2" data-name="Caminho 299-2" class="cls-1" d="M375,381V0H0V410.73H1.23l22.29,12.09L45.8,410.73h2.28l22.29,12.09,22.28-12.09h2.29l22.28,12.09,22.29-12.09h2.28l22.28,12.09,22.29-12.09h2.29l22.28,12.09,22.28-12.09h2.29l22.28,12.09,22.29-12.09h2.28l22.28,12.09,22.28-12.09h2.29l22.28,12.09,22.29-12.09H375v-.67h0V381Z"/><path id="Caminho_299-2-2" data-name="Caminho 299-2" class="cls-1" d="M750,381V0H375V410.74h1.23l22.29,12.09,22.28-12.09h2.28l22.29,12.09,22.28-12.09h2.29l22.28,12.09,22.28-12.09h2.29l22.28,12.09,22.29-12.09h2.28l22.29,12.09,22.28-12.09h2.29l22.28,12.09,22.28-12.09h2.28l22.29,12.09,22.28-12.09h2.29l22.28,12.09,22.28-12.09H750v-.67h0V381Z"/></g></g></svg>